# AST/ASF file generated using VICON BodyLanguage
# -----------------------------------------------
:version 1.10
:name VICON
:units
  mass 1.0
  length 0.45
  angle deg
:documentation
   .ast/.asf automatically generated from VICON data using
   VICON BodyBuilder and BodyLanguage model FoxedUp or BRILLIANT.MOD
:root
   order TX TY TZ RX RY RZ
   axis XYZ
   position 0 0 0  
   orientation 0 0 0 
:bonedata
  begin
     id 1 
     name lhipjoint
     direction 0.643824 -0.71708 0.266994 
     length 2.52133 
     axis 0 0 0  XYZ
  end
  begin
     id 2 
     name lfemur
     direction 0.34202 -0.939693 0  
     length 7.51824  
     axis 0 0 20  XYZ
    dof rx ry rz
    limits (-160.0 20.0)
           (-70.0 70.0)
           (-60.0 70.0)
  end
  begin
     id 3 
     name ltibia
     direction 0.34202 -0.939693 0   
     length 7.3685   
     axis 0 0 20   XYZ
    dof rx
    limits (-10.0 170.0)
  end
  begin
     id 4 
     name lfoot
     direction 0.105419 -0.289636 0.951314   
     length 2.20972   
     axis -90 7.62852e-016 20   XYZ
    dof rx rz
    limits (-45.0 90.0)
           (-70.0 20.0)
  end
  begin
     id 5 
     name ltoes
     direction 1.53549e-011 -4.21833e-011 1   
     length 1.10139   
     axis -90 7.62852e-016 20   XYZ
    dof rx
    limits (-90.0 20.0)
  end
  begin
     id 6 
     name rhipjoint
     direction -0.608823 -0.743445 0.276811   
     length 2.43192  
     axis 0 0 0  XYZ 
  end
  begin
     id 7 
     name rfemur
     direction -0.34202 -0.939693 0   
     length 7.69715   
     axis 0 0 -20   XYZ
    dof rx ry rz
    limits (-160.0 20.0)
           (-70.0 70.0)
           (-70.0 60.0)
  end
  begin
     id 8 
     name rtibia
     direction -0.34202 -0.939693 0   
     length 7.44924   
     axis 0 0 -20   XYZ
    dof rx
    limits (-10.0 170.0)
 end
 begin
     id 9 
     name rfoot
     direction -0.103614 -0.284677 0.953007   
     length 2.22623  
     axis -90 -7.62852e-016 -20   XYZ
    dof rx rz
    limits (-45.0 90.0)
           (-20.0 70.0)
  end
  begin
     id 10 
     name rtoes
     direction -1.53537e-011 -4.22026e-011 1   
     length 1.11   
     axis -90 -7.62852e-016 -20   XYZ
    dof rx
    limits (-90.0 20.0)
  end
  begin
     id 11 
     name lowerback
     direction -0.0101212 0.99662 -0.0815298   
     length 2.08277   
     axis 0 0 0   XYZ
    dof rx ry rz
    limits (-20.0 45.0)
           (-30.0 30.0)
           (-30.0 30.0)
  end
  begin
     id 12 
     name upperback
     direction 0.024314 0.999591 -0.0150645   
     length 2.08524   
     axis 0 0 0   XYZ
    dof rx ry rz
    limits (-20.0 45.0)
           (-30.0 30.0)
           (-30.0 30.0)
  end
  begin
     id 13 
     name thorax
     direction 0.0285959 0.999323 0.0231357   
     length 2.09645   
     axis 0 0 0   XYZ
    dof rx ry rz
    limits (-20.0 45.0)
           (-30.0 30.0)
           (-30.0 30.0)
  end
  begin
     id 14 
     name lowerneck
     direction -0.065512 0.979301 0.191515   
     length 1.63798   
     axis 0 0 0   XYZ
    dof rx ry rz
    limits (-20.0 45.0)
           (-30.0 30.0)
           (-30.0 30.0)
  end
  begin
     id 15 
     name upperneck
     direction 0.0498479 0.98191 -0.182667   
     length 1.68731   
     axis 0 0 0   XYZ
    dof rx ry rz
    limits (-20.0 45.0)
           (-30.0 30.0)
           (-30.0 30.0)
  end
  begin
     id 16
     name head
     direction 0.0230358 0.996257 -0.0833175  
     length 1.69785  
     axis 0 0 0   XYZ
    dof rx ry rz
    limits (-20.0 45.0)
           (-30.0 30.0)
           (-30.0 30.0)
  end
  begin
     id 17 
     name lclavicle
     direction 0.967963 0.201165 -0.150269  
     length 3.63976  
     axis 0 0 0   XYZ
    dof ry rz
    limits (-20.0 10.0)
           (0.0 20.0)
  end
  begin
     id 18 
     name lhumerus
     direction 1 -4.48954e-011 -2.92837e-028   
     length 5.32462   
     axis 180 -30 -90   XYZ
    dof rx ry rz
    limits (-60.0 90.0)
           (-90.0 90.0)
           (-90.0 90.0)
  end
  begin
     id 19
     name lradius
     direction 1 -4.48958e-011 -6.39511e-027   
     length 3.48402   
     axis 180 -30 -90   XYZ
    dof rx
    limits (-10.0 170.0)
  end
  begin
     id 20
     name lwrist
     direction 1 -4.48975e-011 -1.1413e-026   
     length 1.74201   
     axis 6.88575e-015 90 90   XYZ
    dof ry
    limits (-180.0 0.0)
 end
  begin
     id 21 
     name lhand
     direction 1 -4.48899e-011 -2.28192e-026   
     length 0.572476   
     axis 1.45643e-014 90 90   XYZ
    dof rx rz
    limits (-90.0 90.0)
           (-45.0 45.0)
  end
  begin
     id 22 
     name lfingers
     direction 1 -4.49155e-011 -4.5684e-026   
     length 0.461545   
     axis 2.91283e-014 90 90   XYZ
    dof rx
    limits (0.0 90.0)
  end
  begin
     id 23
     name lthumb
     direction 0.707107 -6.34943e-011 0.707107   
     length 0.662688   
     axis -90 45 -2.25915e-014   XYZ
    dof rx rz
    limits (-45.0 45.0)
           (-45.0 45.0)
  end
  begin
     id 24 
     name rclavicle
     direction -0.964103 0.264019 -0.0282629   
     length 3.54491  
     axis 0 0 0   XYZ 
    dof ry rz
    limits (-10.0 20.0)
           (-20.0 0.0)
  end
  begin
     id 25 
     name rhumerus
     direction -1 -4.48964e-011 -2.45032e-027  
     length 5.33589   
     axis 180 30 90   XYZ
    dof rx ry rz
    limits (-90.0 60.0)
           (-90.0 90.0)
           (-90.0 90.0)
  end
  begin
     id 26 
     name rradius
     direction -1 -4.48987e-011 -1.55093e-027   
     length 3.64134   
     axis 180 30 90   XYZ
    dof rx
    limits (-10.0 170.0)
  end
  begin
     id 27 
     name rwrist
     direction -1 -4.4897e-011 -1.14128e-026   
     length 1.82067   
     axis 6.88575e-015 -90 -90   XYZ
    dof ry
    limits (-180.0 0.0)
  end
  begin
     id 28
     name rhand
     direction -1 -4.49021e-011 -2.28301e-026   
     length 0.734811   
     axis 1.45643e-014 -90 -90   XYZ
    dof rx rz
    limits (-90.0 90.0)
           (-45.0 45.0)
  end
  begin
     id 29
     name rfingers
     direction -1 -4.48862e-011 -4.56319e-026   
     length 0.592424   
     axis 2.91283e-014 -90 -90   XYZ
    dof rx
    limits (0.0 90.0)
  end
  begin
     id 30
     name rthumb
     direction -0.707107 -6.34978e-011 0.707107   
     length 0.850605   
     axis -90 -45 2.25915e-014   XYZ
    dof rx rz
    limits (-45.0 45.0)
           (-45.0 45.0)
  end
:hierarchy
  begin
    root lhipjoint rhipjoint lowerback
    lhipjoint lfemur
    lfemur ltibia
    ltibia lfoot
    lfoot ltoes
    rhipjoint rfemur
    rfemur rtibia
    rtibia rfoot
    rfoot rtoes
    lowerback upperback
    upperback thorax
    thorax lowerneck lclavicle rclavicle
    lowerneck upperneck
    upperneck head
    lclavicle lhumerus
    lhumerus lradius
    lradius lwrist
    lwrist lhand lthumb
    lhand lfingers
    rclavicle rhumerus
    rhumerus rradius
    rradius rwrist
    rwrist rhand rthumb
    rhand rfingers
  end

#!OML:ASF F:\VICON\USERDATA\INSTALL\rory3\rory3.ASF
:FULLY-SPECIFIED
:DEGREES
1
root -0.723987 17.9076 -1.44808 6.23056 -7.39876 1.27584
lowerback 1.99583 -1.22354 -2.47495
upperback -1.39431 -1.66568 1.99003
thorax -2.423 -0.772727 3.50415
lowerneck -17.5473 -9.87069 -13.135
upperneck 20.383 -11.6854 6.49205
head 10.6237 -5.68772 2.67552
rclavicle -4.96962e-017 1.27222e-014
rhumerus -30.5437 -7.49965 -81.0569
rradius 29.9715
rwrist 22.946
rhand -21.9431 -0.160471
rfingers 7.12502
rthumb 4.46376 -30.0934
lclavicle -4.96962e-017 1.27222e-014
lhumerus -35.194 23.2579 74.5273
lradius 27.9217
lwrist -12.5535
lhand -7.77122 29.1381
lfingers 7.12502
lthumb 18.129 58.3133
rfemur -17.8197 5.6733 16.7094
rtibia 31.217
rfoot -17.7198 -4.18953
rtoes 10.6226
lfemur -8.16734 -3.46425 -20.1096
ltibia 20.934
lfoot -13.9164 15.7372
ltoes -16.9358
2
root -0.698243 17.9093 -1.46185 6.29291 -7.30925 1.34615
lowerback 1.97628 -1.26051 -2.59101
upperback -1.33503 -1.71853 1.98127
thorax -2.34382 -0.799565 3.56074
lowerneck -17.8476 -9.87834 -13.0392
upperneck 20.4728 -11.6634 6.40558
head 10.6972 -5.67218 2.62185
rclavicle 1.8487e-014 3.4191e-014
rhumerus -30.3267 -7.51637 -81.0146
rradius 29.8756
rwrist 22.9187
rhand -21.7699 -0.0632605
rfingers 7.12502
rthumb 4.63093 -29.9926
lclavicle 1.8487e-014 3.4191e-014
lhumerus -34.9941 23.2064 74.6348
lradius 27.7548
lwrist -11.8914
lhand -7.76148 29.6026
lfingers 7.12502
lthumb 18.1383 58.7769
rfemur -17.9486 5.56995 16.5383
rtibia 31.2194
rfoot -17.6728 -4.18591
rtoes 10.6412
lfemur -8.34621 -3.40312 -20.2481
ltibia 20.9735
lfoot -13.9125 15.5428
ltoes -16.6615
3
root -0.671868 17.9104 -1.47162 6.3202 -7.31125 1.41071
lowerback 1.93213 -1.22439 -2.68268
upperback -1.37599 -1.6725 1.96906
thorax -2.36282 -0.774207 3.59774
lowerneck -17.7081 -9.87949 -13.2026
upperneck 20.5832 -11.6724 6.50845
head 10.7313 -5.68147 2.68673
rclavicle 1.10325e-014 -1.27222e-014
rhumerus -30.4278 -7.60867 -80.8339
rradius 29.8235
rwrist 22.9113
rhand -21.6121 0.0198171
rfingers 7.12502
rthumb 4.78332 -29.9062
lclavicle 1.10325e-014 -1.27222e-014
lhumerus -35.0816 23.0821 74.6579
lradius 27.7133
lwrist -11.8961
lhand -7.74585 29.6617
lfingers 7.12502
lthumb 18.1534 58.8345
rfemur -18.0399 5.51875 16.3681
rtibia 31.2327
rfoot -17.5992 -4.1874
rtoes 10.5607
lfemur -8.42672 -3.41901 -20.4119
ltibia 20.9707
lfoot -13.872 15.5613
ltoes -16.7613
4
root -0.644318 17.9126 -1.47751 6.27224 -7.3363 1.4092
lowerback 1.96659 -1.1839 -2.69023
upperback -1.38763 -1.61914 1.97829
thorax -2.39812 -0.746474 3.61087
lowerneck -17.5346 -9.88623 -13.3728
upperneck 20.6322 -11.6886 6.61091
head 10.7378 -5.69531 2.75294
rclavicle -2.77305e-014 1.11319e-014
rhumerus -30.5644 -7.76442 -80.6244
rradius 29.8037
rwrist 22.9959
rhand -21.6464 0.18023
rfingers 7.12502
rthumb 4.75023 -29.7465
lclavicle -2.77305e-014 1.11319e-014
lhumerus -35.1971 23.1639 74.5738
lradius 27.6712
lwrist -12.1986
lhand -8.37053 28.5052
lfingers 7.12502
lthumb 17.5523 57.7328
rfemur -18.0096 5.57357 16.2682
rtibia 31.2397
rfoot -17.6095 -4.25404
rtoes 10.1278
lfemur -8.40493 -3.41595 -20.5179
ltibia 20.9713
lfoot -13.8634 15.5817
ltoes -16.5852
5
root -0.615654 17.9137 -1.48152 6.20643 -7.3162 1.46654
lowerback 1.99063 -1.16852 -2.71863
upperback -1.35582 -1.60049 1.9519
thorax -2.38039 -0.737663 3.59895
lowerneck -17.5098 -9.89609 -13.3781
upperneck 20.649 -11.692 6.55865
head 10.7367 -5.70384 2.73522
rclavicle 2.79292e-014 -1.43125e-014
rhumerus -30.6274 -7.80945 -80.5062
rradius 29.7524
rwrist 22.9857
rhand -21.8246 0.32746
rfingers 7.12502
rthumb 4.57814 -29.6031
lclavicle 2.79292e-014 -1.43125e-014
lhumerus -35.219 23.1062 74.6094
lradius 27.6586
lwrist -11.832
lhand -8.59472 28.5452
lfingers 7.12502
lthumb 17.3365 57.792
rfemur -17.9494 5.62463 16.0985
rtibia 31.2631
rfoot -17.6439 -4.29271
rtoes 10.0509
lfemur -8.36039 -3.3457 -20.6855
ltibia 20.9401
lfoot -13.7808 15.4935
ltoes -16.5777
6
root -0.588344 17.9164 -1.4891 6.23809 -7.21442 1.53065
lowerback 1.92482 -1.17666 -2.76502
upperback -1.30226 -1.61251 1.8958
thorax -2.28749 -0.745914 3.56471
lowerneck -17.6873 -9.90754 -13.2096
upperneck 20.7246 -11.7106 6.46358
head 10.7811 -5.70549 2.66507
rclavicle -2.86747e-014 7.95139e-016
rhumerus -30.6077 -7.76321 -80.516
rradius 29.7554
rwrist 22.8605
rhand -22.0163 0.184445
rfingers 7.12502
rthumb 4.39299 -29.75
lclavicle -2.86747e-014 7.95139e-016
lhumerus -35.1358 23.0337 74.6289
lradius 27.7814
lwrist -11.642
lhand -6.25577 31.4309
lfingers 7.12502
lthumb 19.5865 60.4643
rfemur -18.0082 5.61521 15.9207
rtibia 31.2988
rfoot -17.7223 -4.31593
rtoes 10.2596
lfemur -8.44358 -3.17117 -20.8365
ltibia 20.8936
lfoot -13.6008 15.2013
ltoes -16.4805
7
root -0.562452 17.9203 -1.49971 6.25501 -7.17763 1.63467
lowerback 1.97303 -1.17001 -2.88716
upperback -1.26849 -1.60978 1.82444
thorax -2.27887 -0.743774 3.56033
lowerneck -17.8776 -9.9061 -13.1017
upperneck 20.7803 -11.7292 6.51515
head 10.8348 -5.69475 2.65646
rclavicle 3.06625e-014 -2.38542e-014
rhumerus -30.5631 -7.79748 -80.5418
rradius 29.8047
rwrist 22.789
rhand -22.0166 -0.0706174
rfingers 7.12502
rthumb 4.39279 -30.0051
lclavicle 3.06625e-014 -2.38542e-014
lhumerus -35.0427 22.9641 74.5532
lradius 27.9846
lwrist -12.1294
lhand -7.3268 29.8687
lfingers 7.12502
lthumb 18.5565 59.0036
rfemur -18.1104 5.62917 15.7071
rtibia 31.3412
rfoot -17.7329 -4.4152
rtoes 9.9368
lfemur -8.53464 -2.94655 -21.0226
ltibia 20.8477
lfoot -13.3565 14.8573
ltoes -16.337
